<?xml version="1.0" encoding="utf-8"?>
<!DOCTYPE svg PUBLIC "-//W3C//DTD SVG 1.0//EN" "http://www.w3.org/TR/2001/REC-SVG-20010904/DTD/svg10.dtd">
<svg version="1.0" xmlns="http://www.w3.org/2000/svg" width="140px" height="140px" viewBox="0 0 140 140" preserveAspectRatio="xMidYMid meet">
 <g fill="#ffffff">
  <path d="M0 70 l0 -70 70 0 70 0 0 70 0 70 -70 0 -70 0 0 -70z m38.96 64.60 c2.80 -0.64 2.99 -0.68 3.09 -0.79 0.05 -0.05 0.22 -0.10 0.37 -0.10 0.15 0 0.38 -0.08 0.49 -0.19 0.12 -0.11 0.79 -0.48 1.49 -0.83 5.21 -2.61 9.50 -7.57 11.29 -13.06 1.04 -3.19 1.44 -6.22 1.19 -8.85 -0.41 -4.18 -1.78 -8.07 -4.01 -11.42 -0.51 -0.74 -0.79 -1.31 -0.79 -1.57 0 -0.38 2.35 -3.05 9.90 -11.22 1.05 -1.16 1.94 -2.15 1.97 -2.19 0.01 -0.05 -1.42 -1.54 -3.20 -3.31 l-3.23 -3.21 -0.90 1 c-0.51 0.55 -3.28 3.60 -6.18 6.77 l-5.26 5.77 -0.62 0.04 c-0.45 0.03 -0.86 -0.07 -1.50 -0.36 -1.07 -0.48 -2.88 -1.03 -4.58 -1.35 -1.86 -0.37 -5.69 -0.33 -7.53 0.07 -6.60 1.42 -12.14 5.50 -15.41 11.32 -2.41 4.31 -3.50 9.71 -2.84 14.07 0.79 5.17 2.99 9.60 6.52 13.11 3.61 3.58 7.85 5.76 12.87 6.58 1.83 0.30 4.88 0.18 6.88 -0.27z m73.14 0.14 c0.79 -0.10 1.83 -0.29 2.32 -0.40 0.49 -0.12 1.09 -0.22 1.33 -0.22 0.25 0 0.96 -0.25 1.57 -0.53 0.63 -0.30 1.48 -0.70 1.90 -0.89 0.42 -0.19 0.83 -0.44 0.93 -0.55 0.10 -0.11 0.79 -0.62 1.56 -1.12 1 -0.66 1.93 -1.45 3.24 -2.78 1.96 -1.97 2.93 -3.27 4.09 -5.50 1.87 -3.58 2.83 -8.13 2.47 -11.73 -0.81 -8.27 -5.54 -15.18 -12.78 -18.68 -4.83 -2.32 -9.67 -2.78 -14.71 -1.37 -1.23 0.34 -3.83 1.39 -4.61 1.85 -0.72 0.44 -1.29 0.37 -1.82 -0.23 -0.48 -0.56 -10.36 -10.94 -13.38 -14.05 -1.01 -1.05 -3.08 -3.20 -4.58 -4.79 -3.05 -3.21 -10.36 -10.81 -16.95 -17.64 -9.61 -9.95 -9.23 -9.53 -9.23 -10.19 0 -0.45 0.15 -0.85 0.60 -1.64 2.16 -3.75 3.34 -9.32 2.83 -13.48 -1.12 -9.20 -7.04 -16.67 -15.38 -19.40 -5.13 -1.68 -10.24 -1.44 -15.26 0.74 -5.97 2.60 -10.72 7.96 -12.65 14.31 -0.89 2.93 -1.22 5.56 -1.03 8.05 0.55 6.55 3.58 12.29 8.71 16.39 2.99 2.41 6.47 3.98 10.29 4.66 1.57 0.27 5.93 0.45 6.18 0.25 0.10 -0.08 0.55 -0.22 1 -0.30 1.23 -0.25 3.40 -0.94 4.55 -1.46 0.56 -0.26 1.08 -0.46 1.15 -0.46 0.07 0 0.29 -0.12 0.48 -0.27 0.21 -0.16 0.56 -0.27 0.86 -0.27 0.48 0 0.68 0.18 4.73 4.33 2.32 2.39 6.54 6.71 9.35 9.60 2.82 2.88 6.73 6.89 8.68 8.90 1.96 2.01 6.70 6.88 10.53 10.81 13.30 13.63 12.37 12.66 12.37 13.10 0 0.25 -0.34 1.01 -0.82 1.89 -2.88 5.17 -3.62 11.02 -2.12 16.52 1.05 3.84 3.49 7.96 6.13 10.36 4.12 3.76 8.15 5.63 13.56 6.29 0.96 0.12 2.56 0.08 3.90 -0.11z m-27.47 -71.82 c0.33 -0.36 2.91 -3.16 5.73 -6.22 5.93 -6.45 5.35 -6.06 7 -4.81 3.57 2.69 9.47 4.36 13.88 3.91 1.71 -0.18 3.94 -0.62 4.62 -0.90 0.23 -0.11 0.59 -0.23 0.81 -0.29 0.21 -0.05 0.81 -0.30 1.33 -0.55 0.52 -0.26 0.97 -0.46 1 -0.46 0.03 0 0.45 -0.22 0.93 -0.49 0.46 -0.27 1.08 -0.62 1.34 -0.77 0.51 -0.30 1.08 -0.74 2.78 -2.15 3.57 -2.98 6.41 -8.03 7.44 -13.21 0.38 -1.91 0.34 -6.23 -0.07 -8.11 -1.86 -8.49 -7.40 -14.89 -15.13 -17.45 -3.75 -1.24 -7.12 -1.46 -10.75 -0.71 -2.17 0.45 -3.45 0.90 -5.52 1.93 -2.27 1.12 -4.01 2.37 -5.81 4.17 -3.80 3.81 -6.14 8.80 -6.73 14.41 -0.31 3.09 0.34 7.31 1.61 10.36 0.18 0.44 0.33 1.05 0.33 1.37 -0.01 0.56 -0.08 0.67 -1.61 2.30 -5.14 5.51 -10.24 11.01 -10.40 11.22 -0.16 0.23 0.11 0.55 3.14 3.68 1.83 1.87 3.36 3.42 3.42 3.42 0.04 0 0.36 -0.29 0.68 -0.66z"/>
  <path d="M33.09 126.37 c-1.75 -0.19 -4.10 -1.04 -5.63 -2.04 -3.47 -2.24 -5.69 -5.95 -6.13 -10.27 -0.46 -4.46 0.72 -8.41 3.51 -11.62 1.53 -1.76 3.92 -3.24 6.33 -3.90 1.03 -0.27 1.45 -0.31 3.76 -0.30 2.42 0 2.68 0.03 3.80 0.37 4.25 1.31 7.38 4.43 8.83 8.78 0.59 1.78 0.74 3.14 0.66 5.71 -0.07 2.56 -0.37 3.80 -1.38 5.91 -0.74 1.53 -1.56 2.63 -2.94 3.92 -2.84 2.65 -6.69 3.88 -10.81 3.43z"/>
  <path d="M106.64 126.26 c-4.12 -0.92 -7.34 -3.43 -9.24 -7.22 -0.97 -1.93 -1.30 -3.32 -1.38 -5.95 -0.08 -2.46 0.05 -3.66 0.60 -5.43 0.72 -2.28 1.79 -3.98 3.61 -5.76 1.74 -1.68 3.21 -2.52 5.67 -3.23 0.97 -0.27 1.38 -0.31 3.95 -0.31 l2.87 0 1.30 0.44 c2.42 0.82 4.94 2.64 6.47 4.69 0.78 1.03 1.76 2.97 2.15 4.17 1.13 3.69 0.82 8.30 -0.78 11.48 -0.70 1.37 -1.18 2.04 -2.35 3.27 -1.72 1.78 -3.51 2.88 -5.85 3.58 -1.07 0.33 -1.48 0.37 -3.66 0.41 -1.79 0.04 -2.71 0 -3.35 -0.15z"/>
  <path d="M32.61 46.89 c-2.82 -0.44 -5.47 -1.83 -7.44 -3.90 -2.67 -2.82 -3.84 -5.85 -3.84 -9.98 0 -3.50 0.81 -6.06 2.75 -8.68 1.67 -2.26 4.13 -3.99 6.82 -4.79 1.44 -0.41 5.32 -0.55 6.86 -0.23 4.12 0.86 7.64 3.77 9.34 7.77 0.86 1.98 1.05 2.95 1.12 5.47 0.05 1.80 0.03 2.52 -0.16 3.42 -1.08 5.37 -4.73 9.35 -9.78 10.65 -1.33 0.34 -4.28 0.48 -5.67 0.27z"/>
  <path d="M107.54 46.88 c-5.35 -0.78 -9.58 -4.65 -11.05 -10.08 -0.42 -1.60 -0.51 -5.11 -0.14 -6.86 0.56 -2.69 1.75 -4.99 3.62 -6.93 1.75 -1.83 3.83 -3.01 6.33 -3.61 1.61 -0.40 4.79 -0.42 6.40 -0.07 4.70 1.04 8.38 4.57 9.88 9.47 0.34 1.15 0.37 1.35 0.37 4.14 0.01 2.47 -0.03 3.09 -0.25 3.90 -0.86 3.20 -2.78 6.03 -5.17 7.70 -1.15 0.79 -2.58 1.53 -3.60 1.85 -1.78 0.57 -4.46 0.78 -6.41 0.49z"/>
 </g>
 <g fill="#020202">
  <path d="M31.68 135.28 c-5.02 -0.82 -9.26 -2.99 -12.87 -6.58 -2.94 -2.93 -4.89 -6.34 -5.93 -10.38 -0.60 -2.37 -0.75 -3.55 -0.77 -5.95 0 -6.52 2.52 -12.52 7.11 -16.95 3.31 -3.20 6.82 -5.07 11.32 -6.04 1.87 -0.41 6.45 -0.45 8.35 -0.07 1.70 0.33 3.51 0.88 4.61 1.37 0.51 0.22 1.01 0.37 1.12 0.33 0.16 -0.07 6.88 -7.34 11.42 -12.40 0.71 -0.79 1.35 -1.46 1.42 -1.49 0.07 -0.03 1.75 1.57 3.73 3.55 3.17 3.16 3.57 3.62 3.42 3.83 -0.08 0.14 -1.05 1.22 -2.16 2.41 -1.09 1.19 -3.64 3.98 -5.65 6.19 -2.02 2.21 -3.80 4.18 -3.98 4.38 l-0.31 0.34 0.71 1.04 c2.97 4.32 4.54 10.21 4.09 15.33 -0.29 3.10 -1.15 6.30 -2.38 8.71 -2.26 4.43 -5.88 8.08 -10.12 10.20 -0.70 0.36 -1.37 0.72 -1.49 0.83 -0.11 0.11 -0.34 0.19 -0.49 0.19 -0.15 0 -0.31 0.04 -0.37 0.10 -0.05 0.05 -0.42 0.18 -0.81 0.27 -3.84 0.89 -3.80 0.89 -6.32 0.93 -1.72 0.04 -2.83 0 -3.66 -0.14z m4.79 -9.38 c2.52 -0.34 5.11 -1.59 7.03 -3.38 1.38 -1.30 2.20 -2.39 2.94 -3.92 0.93 -1.93 1.30 -3.38 1.38 -5.48 0.10 -2.13 -0.10 -3.60 -0.66 -5.32 -1.45 -4.35 -4.59 -7.48 -8.83 -8.78 -1.08 -0.33 -1.42 -0.37 -3.39 -0.37 -1.89 -0.01 -2.35 0.03 -3.35 0.30 -4.77 1.31 -8.48 5.26 -9.57 10.21 -0.88 3.91 -0.03 8.16 2.24 11.33 2.78 3.87 7.64 6.03 12.21 5.40z"/>
  <path d="M90.97 100.01 c0.05 -0.15 -0.78 -1.09 -2.63 -2.98 -1.48 -1.53 -5.82 -5.99 -9.67 -9.93 -3.83 -3.94 -8.57 -8.80 -10.53 -10.81 -4.55 -4.68 -17.55 -18.02 -20.26 -20.78 l-2.06 -2.12 -0.42 0.31 c-0.23 0.16 -0.46 0.30 -0.53 0.30 -0.07 0 -0.59 0.21 -1.15 0.46 -1.15 0.52 -3.32 1.22 -4.55 1.46 -0.45 0.08 -0.90 0.22 -1 0.29 -0.26 0.22 -5.44 0.04 -7 -0.23 -9.37 -1.68 -16.67 -8.83 -18.59 -18.20 -1.35 -6.55 0.22 -13.48 4.27 -18.88 3.47 -4.63 8.35 -7.63 14.26 -8.74 2.04 -0.38 5.74 -0.36 7.83 0.05 9.12 1.82 15.79 8.38 17.92 17.66 0.63 2.72 0.72 6.60 0.23 9.31 -0.51 2.73 -1.48 5.52 -2.63 7.51 -0.33 0.57 -0.60 1.13 -0.60 1.23 0 0.18 1.75 2.02 9.23 9.78 6.59 6.82 13.90 14.42 16.95 17.64 1.50 1.59 3.57 3.73 4.58 4.79 3.04 3.14 12.91 13.49 13.40 14.05 0.25 0.29 0.53 0.49 0.63 0.45 0.12 -0.05 0.19 0.03 0.19 0.23 0 0.23 -0.22 0.46 -0.85 0.88 -2.12 1.39 -4.61 3.79 -5.97 5.74 -0.36 0.51 -0.59 0.71 -0.82 0.72 -0.23 0 -0.30 -0.05 -0.23 -0.21z m-53.10 -53.80 c5.03 -1.29 8.70 -5.28 9.79 -10.66 0.30 -1.52 0.21 -4.40 -0.21 -5.89 -1.41 -5.17 -5.22 -8.91 -10.10 -9.93 -1.48 -0.30 -4.61 -0.18 -6.04 0.25 -7.27 2.12 -11.35 10.20 -8.83 17.57 1.59 4.69 5.71 8.19 10.54 8.94 1.26 0.19 3.53 0.07 4.85 -0.27z"/>
  <path d="M80.13 60.57 l-3.73 -3.83 0.40 -0.45 c0.21 -0.26 1.98 -2.19 3.94 -4.28 6.73 -7.23 8.20 -8.83 8.24 -9.01 0.03 -0.10 -0.11 -0.53 -0.29 -0.98 -1.80 -4.28 -2.20 -9.79 -1.07 -14.55 0.64 -2.73 2.11 -5.92 3.81 -8.33 1.16 -1.64 3.42 -3.90 5.09 -5.10 1.46 -1.04 4.31 -2.50 5.93 -3.04 6.38 -2.12 13.44 -1.26 19.11 2.31 5.18 3.25 8.82 8.63 10.25 15.15 0.27 1.23 0.31 1.80 0.31 4.55 0 3.51 -0.12 4.42 -0.97 7.18 -1.22 3.94 -3.84 8.01 -6.71 10.40 -1.70 1.41 -2.27 1.85 -2.78 2.15 -0.26 0.15 -0.88 0.49 -1.34 0.77 -0.48 0.27 -0.90 0.49 -0.93 0.49 -0.03 0 -0.48 0.21 -1 0.46 -0.52 0.25 -1.12 0.49 -1.33 0.55 -0.22 0.05 -0.57 0.18 -0.81 0.29 -0.74 0.31 -3.06 0.75 -4.87 0.92 -1.93 0.18 -4.32 0.03 -6.28 -0.38 -2.84 -0.60 -6.22 -2.06 -8.19 -3.55 l-1.01 -0.75 -0.37 0.38 c-0.34 0.34 -2.69 2.91 -9.27 10.06 -1.23 1.33 -2.28 2.42 -2.34 2.42 -0.05 0 -1.78 -1.72 -3.83 -3.83z m31.51 -14.15 c1.50 -0.26 2.32 -0.52 3.53 -1.12 3.58 -1.78 6.04 -4.84 7.14 -8.86 0.22 -0.78 0.26 -1.41 0.25 -3.49 0 -2.34 -0.03 -2.63 -0.37 -3.73 -1.50 -4.91 -5.21 -8.46 -9.88 -9.47 -1.54 -0.33 -4.01 -0.30 -5.58 0.07 -5.06 1.20 -8.85 5.22 -9.95 10.54 -0.36 1.68 -0.29 4.44 0.14 6.04 1.82 6.81 8.20 11.14 14.74 10.02z"/>
 </g>
 <g fill="#036bb7">
  <path d="M107.80 135.26 c-5.41 -0.66 -9.45 -2.53 -13.56 -6.29 -2.30 -2.09 -4.65 -5.84 -5.77 -9.19 -1.71 -5.07 -1.52 -10.90 0.52 -15.93 1.74 -4.32 4.79 -8 8.90 -10.72 2.08 -1.38 5.21 -2.57 8.20 -3.12 1.97 -0.37 5.35 -0.33 7.38 0.07 9.12 1.79 15.91 8.42 17.99 17.51 1.39 6.14 0.16 12.59 -3.46 18.03 -1.15 1.71 -4.10 4.63 -5.88 5.81 -0.77 0.51 -1.46 1.01 -1.56 1.12 -0.10 0.11 -0.51 0.36 -0.93 0.55 -0.42 0.19 -1.27 0.59 -1.90 0.89 -0.62 0.29 -1.33 0.53 -1.57 0.53 -0.23 0 -0.83 0.10 -1.33 0.22 -2.04 0.48 -5.32 0.72 -7.04 0.51z m5.44 -9.67 c1.42 -0.42 2.86 -1.12 3.99 -1.93 0.94 -0.67 2.69 -2.45 3.31 -3.35 1.20 -1.79 1.98 -3.99 2.26 -6.43 0.38 -3.43 -0.66 -7.25 -2.72 -9.98 -1.53 -2.05 -4.05 -3.87 -6.47 -4.69 -1.27 -0.42 -1.34 -0.44 -3.76 -0.44 -2.13 0.01 -2.60 0.05 -3.54 0.31 -2.46 0.71 -3.94 1.54 -5.67 3.23 -3.05 2.97 -4.40 6.41 -4.21 10.79 0.10 2.17 0.49 3.76 1.38 5.52 1.63 3.25 4.17 5.52 7.53 6.73 1.59 0.57 2.47 0.70 4.65 0.64 1.74 -0.04 2.24 -0.11 3.25 -0.41z"/>
 </g>
</svg>